<svg width="1920" height="960" viewBox="0 0 1920 960" fill="none" xmlns="http://www.w3.org/2000/svg">
<g clip-path="url(#clip0_198_133)">
<rect width="1920" height="960" fill="#1C2B35"/>
<path d="M1403.68 525.356L1403.68 525.351C1400.39 518.767 1400 513.599 1401.27 509.448C1402.53 505.275 1405.52 501.956 1409.31 499.186C1413.11 496.414 1417.63 494.253 1421.86 492.364C1422.57 492.049 1423.27 491.74 1423.96 491.436C1427.33 489.949 1430.42 488.585 1432.48 487.193L1432.48 487.189L1432.49 487.184C1439.5 482.279 1447.53 481.239 1455.71 480.18C1455.95 480.15 1456.18 480.119 1456.41 480.089C1464.76 479.006 1473.25 477.783 1480.26 471.886L1480.26 471.88L1480.27 471.874C1485.95 466.915 1494.02 465.781 1502.16 468.471C1503.86 469.306 1505.79 470.275 1507.34 471.987C1509.49 474.491 1510.35 477.905 1510.26 481.223C1510.17 484.548 1509.14 487.602 1507.69 489.366C1506.14 491.031 1504.2 492.118 1502.06 493.202C1501.79 493.341 1501.51 493.48 1501.23 493.62C1499.35 494.56 1497.35 495.563 1495.56 496.987L1495.55 496.992C1492.52 499.448 1490.31 503.145 1488.49 507.23C1487.06 510.441 1485.84 513.979 1484.63 517.449C1484.3 518.395 1483.98 519.336 1483.65 520.264C1482.1 524.634 1480.51 528.719 1478.48 531.91C1476.46 535.09 1474.07 537.265 1470.98 538.005L1470.97 538.007L1470.96 538.01C1466.79 539.11 1462.1 537.365 1457.01 535.033C1456.3 534.711 1455.59 534.378 1454.88 534.043C1453.06 533.193 1451.22 532.33 1449.4 531.601C1446.87 530.581 1444.3 529.779 1441.78 529.6L1441.78 529.6C1438.09 529.345 1434.79 530.397 1431.67 531.643C1430.87 531.964 1430.08 532.296 1429.31 532.623C1427.01 533.59 1424.78 534.527 1422.4 535.085L1422.38 535.09L1422.35 535.097C1416.37 536.816 1408.12 534.357 1403.68 525.356Z" stroke="#FF9900" stroke-width="2" stroke-miterlimit="10"/>
<path d="M1502.96 523.25L1502.96 523.26C1502.3 525.614 1501.67 528.132 1501.02 530.731C1499.91 535.189 1498.74 539.884 1497.25 544.394C1494.92 551.513 1491.9 557.835 1487.44 561.559C1483.29 564.97 1478.5 565.643 1473.13 565.065C1468.67 564.535 1464.08 562.745 1459.22 560.431C1457.01 559.376 1454.76 558.222 1452.46 557.039C1452.24 556.926 1452.02 556.813 1451.8 556.7C1449.27 555.403 1446.68 554.081 1444.02 552.845C1439.3 550.532 1434.7 548.802 1430.16 548.499C1424.96 547.882 1420.17 548.893 1415.44 550.421C1413.29 551.116 1411.13 551.925 1408.95 552.742C1408.73 552.822 1408.52 552.902 1408.31 552.983C1405.9 553.883 1403.46 554.782 1400.92 555.563L1400.91 555.565C1386.81 560.048 1372.2 551.78 1364.56 535.556C1362 530.117 1360.18 524.791 1359.09 519.575C1357.67 511.794 1357.05 503.075 1358.22 495.271C1359.39 487.451 1362.31 480.691 1367.82 476.618C1368.97 475.774 1370.51 475.32 1372.37 475.118C1374.24 474.917 1376.32 474.975 1378.48 475.078C1378.85 475.095 1379.23 475.114 1379.6 475.133C1381.39 475.224 1383.21 475.316 1384.91 475.272C1386.95 475.219 1388.94 474.968 1390.58 474.206L1390.59 474.202L1390.6 474.199C1394.16 472.477 1397.55 470.731 1400.82 469.05C1406.86 465.939 1412.46 463.052 1417.94 460.951L1417.95 460.947L1417.96 460.944C1425.31 457.944 1431.99 453.804 1438.5 449.762C1439.25 449.3 1439.99 448.839 1440.73 448.381C1447.99 443.902 1455.14 439.715 1463.05 437.357C1466.67 436.286 1470.91 436.838 1475.45 437.527C1475.68 437.563 1475.92 437.599 1476.15 437.635C1480.36 438.277 1484.78 438.954 1488.74 438.147C1490.25 438.011 1491.35 437.63 1492.64 436.799L1492.65 436.79L1492.66 436.781C1502.35 430.044 1514.39 430.004 1525.89 435.122L1525.9 435.128L1525.91 435.133C1529.08 436.432 1532.15 438.439 1535.04 441.896L1535.17 442.058L1535.36 442.152L1535.4 442.168C1535.4 442.172 1535.41 442.175 1535.42 442.179L1535.44 442.251L1535.53 442.375C1539.35 447.553 1541.12 454.44 1541.27 460.95C1541.41 467.486 1539.9 473.432 1537.41 476.763L1537.4 476.778L1537.39 476.793C1535.26 479.863 1532.46 481.761 1529.41 483.46C1528.65 483.881 1527.87 484.293 1527.08 484.711C1524.74 485.949 1522.31 487.234 1520.16 488.926C1518.45 490.231 1517.01 491.458 1515.69 493.03C1512.26 496.958 1509.85 501.885 1507.92 507.114C1506.4 511.227 1505.16 515.585 1503.95 519.834C1503.62 520.983 1503.29 522.124 1502.96 523.25Z" stroke="#FF9900" stroke-width="2" stroke-miterlimit="10"/>
<path d="M1497.51 589.685L1497.51 589.689L1497.5 589.693C1490.67 594.392 1483.05 593.995 1475.38 592.063C1469.28 590.497 1463.19 587.515 1456.91 584.039C1454.66 582.797 1452.38 581.485 1450.08 580.157C1445.98 577.798 1441.79 575.386 1437.52 573.206C1431.34 569.908 1425.27 568.009 1419.53 567.079L1419.52 567.077L1419.5 567.075C1412.6 566.144 1406.18 567.349 1399.81 569.305C1396.62 570.281 1393.43 571.451 1390.2 572.64L1390.01 572.708C1386.83 573.878 1383.6 575.065 1380.25 576.125C1357.17 583.325 1336.66 569.314 1325.87 545.969C1322.3 537.617 1319.09 529.236 1317.67 520.98L1317.67 520.98L1317.67 520.968C1315.56 509.642 1313.75 495.806 1314.58 483.214C1315.42 470.587 1318.91 459.463 1327.16 453.236C1328.73 452.103 1331.08 451.719 1334.08 451.852C1337.05 451.984 1340.45 452.612 1343.96 453.304C1344.33 453.377 1344.7 453.451 1345.07 453.525C1348.19 454.145 1351.36 454.774 1354.24 455.065C1357.44 455.39 1360.48 455.324 1362.81 454.229L1362.82 454.224C1367.7 451.858 1372.37 449.371 1376.92 446.952C1379.33 445.667 1381.71 444.402 1384.06 443.184C1390.87 439.66 1397.53 436.505 1404.5 434.298C1415.96 430.741 1425.37 422.903 1434.52 415.081C1434.87 414.783 1435.22 414.484 1435.56 414.186C1444.41 406.617 1453.07 399.205 1463.33 395.362L1463.33 395.36C1465.35 394.589 1467.8 394.621 1470.59 395.195C1473.38 395.769 1476.4 396.859 1479.52 398.094C1480.46 398.464 1481.41 398.848 1482.36 399.233C1484.55 400.122 1486.77 401.019 1488.9 401.771C1491.97 402.848 1494.99 403.67 1497.74 403.763C1499.65 403.859 1501.57 403.627 1503.27 402.633L1503.31 402.614L1503.34 402.593C1517.33 392.972 1534.36 394.025 1549.83 401.347C1554.42 403.599 1558.87 406.56 1563.16 412.009L1563.6 412.567L1563.69 412.535C1569.22 420.148 1571.94 430.344 1572.34 439.956C1572.75 449.612 1570.8 458.449 1567.26 463.372L1567.25 463.382L1567.24 463.393C1564.06 468.064 1559.97 470.847 1555.55 473.368C1554.63 473.896 1553.69 474.414 1552.73 474.937C1549.18 476.892 1545.49 478.919 1542.16 481.775L1542.16 481.783L1542.15 481.791C1540.22 483.531 1538.06 485.725 1536.32 488.155C1528.12 499.421 1524.37 515.015 1521.01 528.986C1520.65 530.502 1520.29 531.998 1519.93 533.467L1519.92 533.475C1519.2 536.525 1518.51 539.862 1517.79 543.357C1516.38 550.177 1514.84 557.598 1512.69 564.656C1509.44 575.327 1504.87 584.784 1497.51 589.685Z" stroke="#FF9900" stroke-width="2" stroke-miterlimit="10"/>
<path d="M1537.12 544.289L1537.12 544.289C1536.18 548.252 1535.3 552.661 1534.37 557.318C1532.59 566.196 1530.63 575.975 1527.82 585.276C1523.54 599.449 1517.41 612.08 1507.33 618.276C1498.31 623.744 1487.51 622.353 1477.57 619.056C1469.85 616.443 1462.27 612.273 1454.59 607.715C1452.74 606.614 1450.88 605.489 1449.01 604.36C1443.17 600.833 1437.25 597.257 1431.2 594.192C1423.22 589.745 1415.87 587.21 1408.62 586.077L1408.62 586.076C1394.01 583.835 1380.74 588.796 1366.2 594.235C1364.01 595.053 1361.8 595.883 1359.54 596.7L1359.54 596.7C1343.9 602.395 1329.43 599.96 1317.11 592.329C1304.77 584.68 1294.55 571.786 1287.59 556.561L1287.58 556.552C1282.43 545.605 1278.54 534.242 1276.45 522.987C1273.74 508.297 1270.71 489.364 1271.21 471.995C1271.71 454.57 1275.75 439.051 1286.82 430.807L1286.83 430.805C1288.91 429.246 1292.15 428.873 1296.27 429.301C1300.35 429.724 1305.05 430.901 1309.86 432.169C1310.36 432.3 1310.86 432.433 1311.37 432.565C1315.66 433.702 1320 434.848 1323.91 435.481C1328.23 436.182 1332.27 436.3 1335.25 434.889L1335.25 434.886C1342.04 431.608 1348.44 428.094 1354.67 424.675C1357.7 423.015 1360.68 421.378 1363.65 419.801C1372.75 414.96 1381.76 410.652 1391.52 407.842C1406.22 403.718 1417.81 392.783 1428.98 381.655C1429.76 380.878 1430.53 380.101 1431.31 379.324C1441.73 368.9 1451.95 358.68 1464.31 353.477C1466.72 352.499 1469.72 352.725 1473.22 353.808C1476.71 354.887 1480.53 356.766 1484.5 358.891C1485.9 359.646 1487.34 360.435 1488.77 361.226C1491.33 362.64 1493.91 364.061 1496.4 365.311C1500.29 367.264 1504.1 368.874 1507.55 369.459L1507.6 369.466L1507.65 369.47L1507.69 369.473C1508.94 369.567 1510.27 369.668 1511.52 369.574C1512.77 369.479 1514.04 369.178 1515.1 368.381C1533.09 355.992 1554.68 357.947 1574.53 367.683C1580.38 370.553 1586.61 374.639 1591.95 382.122C1592.03 382.275 1592.11 382.396 1592.19 382.486C1592.28 382.603 1592.39 382.706 1592.45 382.764C1592.48 382.796 1592.5 382.819 1592.52 382.837C1592.53 382.848 1592.54 382.858 1592.55 382.866L1592.57 382.925L1592.65 383.036C1599.66 393.36 1603.19 406.953 1603.81 419.705C1604.44 432.489 1602.14 444.21 1597.74 450.843L1597.74 450.85C1593.56 457.268 1588.1 460.961 1582.27 464.275C1581.15 464.914 1580.01 465.541 1578.86 466.172C1574.09 468.793 1569.17 471.491 1564.83 475.458L1564.81 475.476L1564.79 475.494L1564.76 475.528C1562.15 478.179 1559.46 480.909 1557.31 484.188C1551.33 492.548 1547.44 502.687 1544.47 513.148C1542.45 520.262 1540.84 527.587 1539.29 534.628C1538.56 537.928 1537.85 541.165 1537.12 544.289Z" stroke="#FF9900" stroke-width="2" stroke-miterlimit="10"/>
<path d="M1233.41 524.768C1235.85 539.2 1241.06 553.398 1247.23 567.27C1264.52 605.389 1298.21 633.287 1338.47 618.101C1339.95 617.546 1341.41 616.993 1342.85 616.446C1362.04 609.186 1378.6 602.918 1396.71 605.644C1405.33 606.959 1413.85 610.081 1423.45 615.32L1233.41 524.768ZM1233.41 524.768L1233.39 524.685M1233.41 524.768L1233.39 524.685M1244.93 406.841C1251.17 402.292 1264.11 406.235 1276.91 410.136C1288.58 413.694 1300.14 417.218 1306.4 414.229C1315 410.177 1323.07 405.668 1331 401.228C1345.92 392.884 1360.41 384.785 1377.23 380.424L1244.93 406.841ZM1244.93 406.841C1216.32 427.978 1226.94 488.174 1233.39 524.685M1244.93 406.841L1233.39 524.685M1447.21 628.196C1439.64 623.43 1431.93 618.581 1423.92 614.437C1414.25 609.161 1405.62 605.992 1396.86 604.655L1396.86 604.655C1378.48 601.889 1361.68 608.251 1342.56 615.489C1341.09 616.043 1339.61 616.603 1338.12 617.164L1338.12 617.165C1318.3 624.639 1300.14 621.517 1284.77 611.829C1269.36 602.121 1256.73 585.795 1248.14 566.861C1241.99 553.024 1236.82 538.914 1234.39 524.601L1234.39 524.594L1234.38 524.548C1231.16 506.286 1226.91 482.204 1227.01 460.053C1227.12 437.817 1231.62 417.917 1245.52 407.647C1248.16 405.723 1252.32 405.427 1257.58 406.196C1262.79 406.958 1268.8 408.717 1274.93 410.579C1275.49 410.75 1276.06 410.922 1276.62 411.094C1282.16 412.784 1287.74 414.485 1292.74 415.475C1298.2 416.556 1303.23 416.851 1306.83 415.133C1315.46 411.066 1323.58 406.529 1331.53 402.082C1335.01 400.134 1338.46 398.203 1341.92 396.337C1353.28 390.192 1364.71 384.703 1377.47 381.393C1395.46 376.868 1409.14 362.871 1422.27 348.413C1423.4 347.174 1424.52 345.932 1425.64 344.692C1437.68 331.358 1449.52 318.23 1464.23 311.601L1464.23 311.6C1467.01 310.335 1470.59 310.73 1474.85 312.328C1479.07 313.917 1483.76 316.615 1488.61 319.656C1490.43 320.797 1492.28 321.991 1494.14 323.186C1497.18 325.149 1500.24 327.118 1503.19 328.873C1507.93 331.699 1512.56 334.063 1516.68 335.053L1516.71 335.06L1516.74 335.065C1520.14 335.676 1523.05 335.957 1525.74 334.219L1525.75 334.212L1525.76 334.204C1548.08 318.901 1574.56 321.66 1598.48 333.913L1598.49 333.917L1598.49 333.92C1605.62 337.413 1613.23 342.44 1619.97 351.921C1620.13 352.328 1620.35 352.608 1620.52 352.801C1620.62 352.92 1620.65 352.947 1620.69 352.995L1620.71 353.061L1620.78 353.172C1629.63 366.25 1634.14 383.24 1635.03 399.096C1635.91 414.987 1633.16 429.524 1627.71 437.755L1627.71 437.761C1622.48 445.778 1615.63 450.304 1608.38 454.417C1607.22 455.077 1606.04 455.727 1604.86 456.38C1598.72 459.778 1592.42 463.261 1586.97 468.612C1583.45 471.97 1580.34 475.559 1577.77 479.697C1570.75 490.187 1566.14 502.876 1562.63 515.916C1560.14 525.195 1558.18 534.709 1556.32 543.761C1555.57 547.425 1554.84 551.013 1554.09 554.479C1553.04 559.186 1552.04 564.489 1550.98 570.132C1548.9 581.236 1546.56 593.658 1543.1 605.447C1537.88 623.232 1530.2 639.118 1517.35 646.449L1517.34 646.451C1505.59 653.216 1491.92 650.705 1479.74 646.045C1470.4 642.382 1461.34 637.025 1452.15 631.294C1450.51 630.271 1448.86 629.235 1447.21 628.196Z" stroke="#FF9900" stroke-width="2" stroke-miterlimit="10"/>
<path d="M1570.85 565.087L1570.85 565.092C1569.74 570.4 1568.68 576.377 1567.56 582.748C1565.17 596.255 1562.47 611.537 1558.29 626.001C1552.14 647.294 1542.9 666.37 1527.15 675.053C1513.18 682.587 1496.74 679.259 1481.89 673.03C1470.94 668.316 1460.43 661.851 1449.84 655.003C1447.85 653.72 1445.86 652.422 1443.87 651.121C1435.24 645.492 1426.49 639.787 1417.4 634.791C1406.33 628.561 1396.1 624.875 1386.18 623.228L1386.17 623.227C1363.35 619.693 1342.73 627.633 1318.5 636.96L1317.33 637.41L1317.33 637.41C1293.34 646.666 1271.57 642.829 1253.23 631.096C1234.86 619.34 1219.92 599.632 1209.75 577.144C1202.31 560.56 1196.16 543.584 1193.07 526.293L1193.07 526.286C1192.97 525.736 1192.86 525.18 1192.76 524.62C1188.79 503.243 1183.55 474.952 1183.29 448.755C1183.03 421.8 1188.07 397.475 1204.75 385.012C1207.96 382.721 1213.05 382.508 1219.44 383.619C1225.78 384.72 1233.1 387.062 1240.54 389.519C1241.17 389.727 1241.8 389.936 1242.43 390.145C1249.22 392.393 1256.04 394.65 1262.13 395.998C1268.72 397.459 1274.72 397.926 1278.95 395.902L1278.96 395.9C1288.88 391.089 1298.2 385.775 1307.33 380.569C1311.95 377.934 1316.52 375.327 1321.1 372.827C1334.76 365.365 1348.56 358.798 1364.19 355.041L1364.19 355.04C1385.18 349.851 1400.86 332.835 1415.93 315.099C1417.31 313.479 1418.68 311.853 1420.05 310.229C1433.77 293.959 1447.35 277.858 1464.46 269.617L1464.47 269.614C1467.63 268.058 1471.8 268.608 1476.79 270.701C1481.75 272.779 1487.27 276.273 1492.99 280.216C1495.39 281.873 1497.84 283.619 1500.28 285.364C1503.61 287.734 1506.93 290.102 1510.13 292.243C1515.69 295.967 1521.06 299.136 1525.78 300.637C1529.98 302.143 1533.51 302.189 1536.51 300.36L1536.53 300.346L1536.55 300.331C1562.88 282.241 1594.68 286.01 1622.55 300.465C1631.08 304.911 1640.09 310.891 1648.23 322.392C1648.3 322.533 1648.37 322.652 1648.43 322.736C1648.51 322.858 1648.61 322.983 1648.68 323.082L1648.69 323.091C1648.77 323.202 1648.84 323.285 1648.89 323.357C1648.91 323.389 1648.92 323.409 1648.92 323.418L1648.96 323.517L1649.03 323.628C1659.65 339.295 1665.06 359.705 1666.19 378.724C1667.31 397.777 1664.12 415.214 1657.78 424.992C1651.41 434.823 1643.1 440.29 1634.39 445.211C1633.02 445.987 1631.63 446.752 1630.24 447.519C1622.86 451.586 1615.35 455.726 1608.91 462.179C1604.84 466.095 1601.32 470.535 1598.25 475.171L1598.25 475.174C1589.86 487.913 1584.55 503.247 1580.57 518.94C1577.98 529.135 1575.94 539.548 1573.99 549.518C1572.94 554.869 1571.92 560.093 1570.85 565.087Z" stroke="#FF9900" stroke-width="2" stroke-miterlimit="10"/>
<path d="M1688.28 412.437L1688.29 412.431C1695.68 401.053 1699.3 380.721 1697.93 358.504C1696.57 336.325 1690.26 312.492 1678.02 294.178L1677.95 294.069L1677.91 293.946C1677.86 293.797 1677.79 293.699 1677.63 293.488L1677.61 293.469C1677.47 293.28 1677.26 293.005 1677.1 292.613C1667.57 279.116 1657.17 272.19 1647.25 266.799C1615 249.934 1578.63 245.255 1548.3 266.126C1545.01 268.472 1540.54 267.911 1536.01 266.227C1530.6 264.251 1524.41 260.315 1517.99 255.717C1514.28 253.062 1510.43 250.142 1506.59 247.222C1503.78 245.093 1500.98 242.964 1498.22 240.936C1491.64 236.088 1485.29 231.768 1479.62 229.125C1473.9 226.462 1469.16 225.636 1465.62 227.317C1454.93 232.638 1445.46 240.85 1436.51 250.405C1429.34 258.06 1422.54 266.534 1415.72 275.039C1414.01 277.161 1412.31 279.285 1410.6 281.399C1393.52 302.48 1375.68 322.567 1351.43 328.152L1351.43 328.153C1332.95 332.357 1316.71 340.108 1300.75 348.888C1295.64 351.702 1290.54 354.627 1285.41 357.574C1274.56 363.801 1263.54 370.128 1251.81 375.71M1688.28 412.437L1251.37 374.808M1688.28 412.437C1681.02 423.812 1671.41 430.164 1661.31 435.919C1659.73 436.817 1658.14 437.702 1656.54 438.589C1647.94 443.369 1639.17 448.246 1631.59 455.842C1627 460.294 1622.74 465.699 1619.25 471.196C1609.66 486.119 1603.52 503.952 1598.95 522.201C1595.7 535.156 1593.23 548.377 1590.89 560.939C1589.93 566.061 1589 571.073 1588.04 575.913C1586.82 581.878 1585.67 588.622 1584.43 595.835C1581.72 611.606 1578.62 629.621 1573.74 646.643C1566.62 671.467 1555.81 693.732 1537.26 703.553C1520.55 712.38 1501.14 707.611 1484.02 700.009C1471.53 694.406 1459.63 686.733 1447.69 678.66C1445.64 677.28 1443.6 675.888 1441.55 674.493C1431.64 667.741 1421.62 660.917 1411.19 655.033M1688.28 412.437L1410.7 655.902M1251.81 375.71C1251.8 375.71 1251.8 375.711 1251.8 375.711L1251.37 374.808M1251.81 375.71C1251.81 375.71 1251.81 375.709 1251.81 375.709L1251.37 374.808M1251.81 375.71C1249.36 376.885 1246.39 377.29 1243.1 377.185C1239.81 377.079 1236.14 376.458 1232.24 375.519C1225.19 373.823 1217.28 371.056 1209.38 368.295C1208.54 368.003 1207.71 367.711 1206.87 367.42C1198.12 364.368 1189.49 361.464 1182.05 360.082C1174.54 358.689 1168.57 358.913 1164.84 361.721L1164.84 361.726C1155.08 368.965 1148.81 379.78 1145.05 392.803C1141.3 405.83 1140.08 421.006 1140.39 436.869C1140.98 466.468 1146.9 498.265 1151.43 522.622C1151.75 524.377 1152.07 526.095 1152.38 527.769C1156.13 548.035 1163.38 568.194 1171.69 587.325M1251.37 374.808C1242.8 378.922 1226.35 373.17 1209.7 367.349C1191.38 360.945 1172.82 354.456 1164.24 360.923C1125.65 389.559 1141.06 472.344 1150.44 522.792C1150.77 524.552 1151.09 526.273 1151.4 527.951C1155.17 548.323 1162.45 568.562 1170.77 587.73M1171.69 587.325C1171.69 587.323 1171.69 587.321 1171.69 587.319L1170.77 587.73M1171.69 587.325C1171.69 587.327 1171.69 587.33 1171.69 587.332L1170.77 587.73M1171.69 587.325C1183.42 613.362 1200.68 636.451 1222.03 650.294C1243.34 664.113 1268.76 668.743 1296.98 657.862M1170.77 587.73C1194.34 640.039 1240.24 680.806 1297.34 658.795M1297.34 658.795L1296.98 657.864C1296.98 657.864 1296.98 657.863 1296.98 657.862M1297.34 658.795C1325.84 647.631 1349.36 638.524 1375.32 642.786C1386.6 644.612 1398.32 648.772 1410.7 655.902M1297.34 658.795L1296.98 657.862M1296.98 657.862C1325.43 646.72 1349.2 637.485 1375.48 641.799C1386.89 643.646 1398.72 647.851 1411.19 655.033M1411.19 655.033C1411.19 655.032 1411.19 655.031 1411.19 655.031L1410.7 655.902M1411.19 655.033C1411.19 655.033 1411.19 655.034 1411.2 655.035L1410.7 655.902" stroke="#FF9900" stroke-width="2" stroke-miterlimit="10"/>
<path d="M1546.94 731.847L1546.95 731.842C1568.45 720.83 1580.75 695.402 1588.74 667.039C1594.14 647.897 1597.52 627.637 1600.5 609.822C1601.93 601.248 1603.27 593.239 1604.69 586.195C1605.87 580.256 1607.01 574.084 1608.18 567.769C1610.75 553.889 1613.44 539.319 1616.95 525.015C1622.06 504.188 1628.92 483.802 1639.71 466.692C1643.64 460.323 1648.42 454.386 1653.74 448.987C1662.29 440.299 1672.27 434.769 1682.07 429.332C1683.89 428.325 1685.7 427.32 1687.49 426.3C1699.01 419.751 1709.99 412.486 1718.25 399.354L1718.25 399.348L1718.26 399.341C1726.7 386.364 1730.75 363.136 1729.11 337.772C1727.47 312.478 1720.19 285.288 1706.22 264.394C1705.91 264.075 1705.69 263.739 1705.53 263.483L1705.51 263.458C1705.32 263.157 1705.18 262.957 1705 262.782L1704.94 262.714L1704.88 262.634C1694.37 247.28 1682.13 239.181 1670.9 233.147C1634.69 214.076 1593.32 208.271 1558.66 232.05L1558.65 232.057L1558.63 232.065C1554.74 234.583 1550 234.177 1544.85 231.932C1538.69 229.583 1531.68 224.909 1524.41 219.438C1520.12 216.211 1515.69 212.663 1511.25 209.116C1508.17 206.649 1505.09 204.183 1502.06 201.827C1494.62 196.05 1487.45 190.892 1481.05 187.732C1474.6 184.547 1469.23 183.542 1465.21 185.554C1453.11 191.707 1442.47 201.226 1432.45 212.296C1424.47 221.114 1416.92 230.871 1409.35 240.654C1407.4 243.163 1405.46 245.672 1403.51 248.169C1384.46 272.542 1364.54 295.664 1337.09 301.807L1337.08 301.808C1315.74 306.459 1297.16 315.367 1278.91 325.506C1273.11 328.729 1267.34 332.082 1261.52 335.461C1249.07 342.689 1236.41 350.037 1222.86 356.488M1546.94 731.847L1222.43 355.586M1546.94 731.847C1528.12 741.75 1505.52 735.955 1486.16 726.988C1472.06 720.335 1458.69 711.476 1445.24 702.271C1443.62 701.157 1441.99 700.039 1440.36 698.919C1428.53 690.789 1416.58 682.571 1404.01 675.592M1546.94 731.847L1403.52 676.464M1222.86 356.488C1222.86 356.488 1222.86 356.489 1222.86 356.489L1222.43 355.586M1222.86 356.488C1222.86 356.488 1222.86 356.487 1222.86 356.487L1222.43 355.586M1222.86 356.488C1220.11 357.814 1216.73 358.254 1212.98 358.1C1209.22 357.946 1205.01 357.192 1200.53 356.066C1192.29 353.993 1183 350.623 1173.74 347.265C1172.95 346.976 1172.15 346.687 1171.35 346.399C1161.28 342.753 1151.37 339.257 1142.86 337.514C1138.6 336.644 1134.75 336.221 1131.43 336.42C1128.1 336.62 1125.39 337.437 1123.34 338.984L1123.33 338.987C1112.18 347.323 1105.09 359.787 1100.92 374.777C1096.75 389.771 1095.51 407.229 1096.01 425.45C1096.89 457.519 1103.13 491.77 1108.07 518.824C1108.74 522.519 1109.39 526.081 1110 529.484L1110 529.487C1114.09 552.827 1122.31 575.844 1132.35 597.927L1132.35 597.931C1145.65 627.518 1165.33 654.044 1189.73 669.949C1214.1 685.828 1243.21 691.146 1275.56 678.326L1275.57 678.322C1307.83 665.875 1334.47 655.662 1363.83 660.697M1222.43 355.586C1212.62 360.306 1193.4 353.333 1174.07 346.322C1153.16 338.734 1132.12 331.1 1122.73 338.186C1079.94 370.176 1096.54 461.221 1107.09 519.009C1107.76 522.703 1108.41 526.261 1109.02 529.659C1113.13 553.11 1121.38 576.211 1131.44 598.341C1158.14 657.744 1210.57 705.155 1275.93 679.255C1308.24 666.786 1334.62 656.701 1363.67 661.683M1363.83 660.697C1363.83 660.696 1363.83 660.696 1363.83 660.696L1363.67 661.683M1363.83 660.697C1363.83 660.697 1363.84 660.697 1363.84 660.698L1363.67 661.683M1363.83 660.697C1376.74 662.746 1389.85 667.582 1404.01 675.592M1363.67 661.683C1376.44 663.71 1389.44 668.497 1403.52 676.464M1403.52 676.464L1404.01 675.59C1404.01 675.59 1404.01 675.591 1404.01 675.592M1403.52 676.464L1404.02 675.594C1404.01 675.593 1404.01 675.592 1404.01 675.592" stroke="#FF9900" stroke-width="2" stroke-miterlimit="10"/>
<path d="M1488.18 753.649L1488.19 753.652C1509.88 764.29 1535.26 770.919 1556.94 760.027C1581.2 747.718 1595.07 719.093 1604.03 687.203C1610.2 665.246 1614 641.959 1617.3 621.659C1618.8 612.491 1620.19 603.932 1621.66 596.38C1622.95 589.674 1624.19 582.688 1625.47 575.529C1628.22 560.025 1631.13 543.707 1634.94 527.659C1640.52 504.184 1648.08 481.16 1660.08 461.862L1660.08 461.853C1664.72 454.559 1669.6 447.87 1675.47 441.913C1685.1 432.036 1696.38 425.772 1707.49 419.6C1709.41 418.534 1711.32 417.471 1713.22 416.392C1726.16 409.046 1738.54 400.946 1747.9 386.369C1757.19 371.68 1761.69 345.626 1759.88 317.173C1758.08 288.785 1750 258.226 1734.35 234.529C1734.05 234.21 1733.83 233.876 1733.67 233.619L1733.65 233.595C1733.46 233.294 1733.32 233.094 1733.14 232.919L1733.08 232.852L1733.02 232.772C1721.11 215.41 1707.49 206.364 1694.86 199.381C1654.6 177.797 1608.34 171.18 1569.35 197.852C1565.18 200.867 1559.81 199.837 1554.05 197.543L1554.04 197.539C1547.19 194.718 1539.35 189.255 1531.21 182.886C1526.45 179.171 1521.54 175.102 1516.63 171.035C1513.14 168.14 1509.65 165.246 1506.22 162.483C1497.92 155.802 1489.92 149.838 1482.83 146.172C1475.68 142.474 1469.77 141.288 1465.43 143.573L1465.43 143.574C1452.04 150.609 1440.28 161.483 1429.23 174.102C1420.56 183.99 1412.36 194.903 1404.14 205.841C1401.86 208.868 1399.59 211.898 1397.3 214.908C1376.27 242.574 1354.24 268.652 1323.7 275.136L1323.69 275.136C1299.49 280.234 1278.45 290.25 1257.89 301.668C1251.14 305.415 1244.43 309.321 1237.68 313.253C1223.91 321.273 1209.95 329.401 1195.08 336.513M1488.18 753.649L1194.65 335.612M1488.18 753.649C1472.53 746.104 1457.74 736.218 1442.91 725.934C1440.82 724.486 1438.73 723.03 1436.63 721.571C1423.88 712.686 1411.01 703.714 1397.49 695.946L1488.18 753.649ZM1195.08 336.513C1195.08 336.514 1195.08 336.514 1195.08 336.514L1194.65 335.612M1195.08 336.513C1195.08 336.513 1195.08 336.513 1195.08 336.513L1194.65 335.612M1195.08 336.513C1192.02 337.99 1188.25 338.463 1184.03 338.258C1179.81 338.053 1175.08 337.164 1170.03 335.846C1160.7 333.414 1150.17 329.484 1139.68 325.567C1138.81 325.244 1137.95 324.921 1137.08 324.598C1125.7 320.358 1114.48 316.279 1104.84 314.195C1100.02 313.154 1095.64 312.622 1091.87 312.803C1088.1 312.983 1085 313.873 1082.67 315.608M1194.65 335.612C1183.65 340.91 1161.9 332.793 1140.02 324.626C1116.41 315.815 1092.65 306.948 1082.07 314.805M1082.67 315.608C1082.67 315.607 1082.67 315.607 1082.67 315.607L1082.07 314.805M1082.67 315.608L1082.07 314.805M1082.67 315.608L1082.07 314.805M1068.57 530.864L1067.59 531.042L1068.57 530.865C1068.57 530.865 1068.57 530.865 1068.57 530.864Z" stroke="#FF9900" stroke-width="2" stroke-miterlimit="10"/>
<path d="M1391.16 716.922C1373.79 706.809 1357.8 700.826 1342.23 698.266C1306.49 692.219 1273.61 703.852 1234.23 719.447C1193.24 735.575 1156.79 728.772 1126.44 708.772C1096.05 688.745 1071.75 655.456 1055.26 618.611C1042.95 590.912 1032.77 562.168 1027.36 532.88C1026.39 527.505 1025.33 521.796 1024.21 515.815C1018.03 482.664 1010.3 441.185 1008.79 402.217C1007.91 379.224 1009.19 357.166 1014.23 338.257C1019.26 319.351 1028.01 303.662 1042.01 293.289L1042.01 293.285C1044.63 291.326 1048.09 290.332 1052.3 290.142C1056.51 289.951 1061.39 290.566 1066.76 291.755C1077.52 294.135 1090.04 298.769 1102.73 303.584C1103.73 303.965 1104.73 304.347 1105.74 304.729C1117.4 309.163 1129.09 313.606 1139.43 316.377C1145.05 317.883 1150.31 318.906 1154.99 319.162C1159.66 319.416 1163.83 318.91 1167.2 317.284C1183.89 309.302 1199.44 300.164 1214.79 291.154C1222.2 286.797 1229.57 282.47 1236.99 278.318C1259.8 265.556 1283.19 254.381 1310.42 248.782L1310.42 248.781C1344.16 241.741 1368.26 212.634 1391.27 181.674C1393.79 178.287 1396.29 174.877 1398.8 171.468C1407.77 159.247 1416.74 147.045 1426.22 135.989C1438.35 121.857 1451.28 109.676 1466.07 101.808C1470.85 99.2887 1477.35 100.693 1485.22 104.91C1493.03 109.093 1501.83 115.857 1510.96 123.428C1514.79 126.603 1518.69 129.928 1522.59 133.255C1527.95 137.821 1533.3 142.39 1538.49 146.576C1547.46 153.818 1556.09 160.05 1563.64 163.346C1570.01 166.201 1575.98 166.98 1580.45 163.877C1623.14 134.515 1674.29 141.938 1718.93 165.936C1732.83 173.54 1747.96 183.848 1761.27 203.228L1761.32 203.307L1761.39 203.374C1761.55 203.525 1761.7 203.767 1761.93 204.168L1761.96 204.214C1762.14 204.526 1762.38 204.953 1762.71 205.3C1780.08 231.429 1789.11 265.302 1791.18 296.798C1793.25 328.36 1788.31 357.312 1777.98 373.601C1767.62 389.937 1753.87 398.951 1739.52 407.09C1737.4 408.293 1735.26 409.478 1733.12 410.665C1720.81 417.492 1708.34 424.407 1697.72 435.372L1697.72 435.38L1697.71 435.389C1691.45 442.172 1685.73 449.491 1680.66 457.666L1680.65 457.67C1667.45 479.155 1659.17 504.734 1653.06 530.79C1648.97 548.201 1645.83 565.885 1642.85 582.722C1641.37 591.062 1639.93 599.194 1638.43 606.981L1638.43 606.982C1636.83 615.288 1635.32 624.732 1633.71 634.867C1630.11 657.339 1625.98 683.207 1619.17 707.596C1609.28 742.998 1593.84 774.817 1566.63 788.319L1566.62 788.322C1542.83 800.29 1514.26 792.633 1490.32 780.629L1490.32 780.628C1473.06 772.032 1456.8 760.961 1440.57 749.597C1438.78 748.345 1436.99 747.089 1435.21 745.833C1420.78 735.7 1406.3 725.529 1391.16 716.922ZM1391.16 716.922C1391.16 716.924 1391.17 716.925 1391.17 716.927L1390.67 717.791M1391.16 716.922C1391.16 716.922 1391.16 716.922 1391.16 716.922L1390.67 717.791M1390.67 717.791C1373.38 707.724 1357.5 701.79 1342.07 699.252M1390.67 717.791C1405.77 726.372 1420.2 736.515 1434.63 746.652C1452.64 759.3 1470.63 771.939 1489.87 781.523L1342.07 699.252M1342.07 699.252C1306.64 693.257 1274 704.772 1234.6 720.377C1151.97 752.892 1087.43 692.93 1054.35 619.018C1042.02 591.274 1031.81 562.451 1026.38 533.06L1342.07 699.252Z" stroke="#FF9900" stroke-width="2" stroke-miterlimit="10"/>
<path d="M1492.45 807.606L1492.45 807.609C1518.73 821.287 1550.08 829.777 1576.74 816.821C1606.75 802.181 1623.73 767.089 1634.6 728.064C1642.01 701.474 1646.53 673.285 1650.47 648.773C1652.3 637.322 1654.01 626.673 1655.83 617.365C1657.41 608.956 1658.92 600.167 1660.48 591.144C1663.68 572.547 1667.06 552.959 1671.53 533.665C1678.17 504.991 1687.25 476.828 1701.87 453.258C1707.36 444.241 1713.5 436.053 1720.74 428.917C1732.37 416.832 1746.06 409.201 1759.6 401.654C1761.91 400.365 1764.22 399.078 1766.51 397.771C1782.27 388.797 1797.39 378.87 1808.8 360.93C1820.19 343.041 1825.55 311.192 1823.24 276.469C1820.94 241.793 1810.99 204.475 1791.99 175.695C1791.64 175.234 1791.4 174.829 1791.19 174.469L1791.19 174.456C1790.97 174.086 1790.78 173.765 1790.5 173.397L1790.49 173.377L1790.47 173.357C1775.76 151.969 1759.24 140.716 1744.07 132.485C1695.48 106.284 1639.32 97.7323 1592.3 129.997L1592.28 130.004L1592.27 130.011C1587.17 133.315 1580.78 132.322 1573.56 129.051C1565.35 125.36 1555.91 118.382 1546.08 110.265C1540.4 105.587 1534.55 100.483 1528.69 95.3795C1524.39 91.6371 1520.1 87.8948 1515.87 84.3208C1505.85 75.8329 1496.19 68.2432 1487.64 63.5447C1479.02 58.8066 1471.9 57.2119 1466.71 60.0396L1466.71 60.0424C1450.52 68.7423 1436.43 82.2512 1423.24 97.9223C1412.96 110.131 1403.27 123.602 1393.57 137.089C1390.81 140.921 1388.06 144.755 1385.28 148.561C1360.31 182.853 1334.13 214.991 1297.14 222.427C1267.06 228.474 1241.22 240.835 1216.08 254.93C1208.11 259.395 1200.2 264.041 1192.25 268.715C1175.14 278.768 1157.81 288.949 1139.21 297.736M1492.45 807.606L1138.78 296.834M1492.45 807.606C1473.58 797.96 1455.93 785.678 1438.27 773.115C1436.77 772.044 1435.26 770.971 1433.76 769.897C1417.61 758.39 1401.38 746.82 1384.2 737.06L1492.45 807.606ZM1139.21 297.736C1139.21 297.737 1139.21 297.738 1139.2 297.738L1138.78 296.834M1139.21 297.736C1139.21 297.736 1139.21 297.735 1139.21 297.735L1138.78 296.834M1139.21 297.736C1135.53 299.512 1130.97 300.052 1125.84 299.746C1120.7 299.44 1114.91 298.281 1108.72 296.584C1097.3 293.454 1084.38 288.453 1071.47 283.458C1070.4 283.042 1069.32 282.626 1068.25 282.211C1054.25 276.802 1040.41 271.584 1028.53 268.863C1022.6 267.503 1017.2 266.779 1012.54 266.95C1007.88 267.122 1004.04 268.186 1001.14 270.334M1138.78 296.834C1125.44 303.273 1098.73 292.936 1071.82 282.521C1042.77 271.277 1013.48 259.943 1000.54 269.531M1001.14 270.334C1001.14 270.334 1001.14 270.333 1001.14 270.333L1000.54 269.531M1001.14 270.334C1001.14 270.334 1001.13 270.334 1001.13 270.334L1000.54 269.531M1001.14 270.334L1000.54 269.531M1330.81 716.738C1330.8 716.738 1330.8 716.738 1330.8 716.737L1330.63 717.723L1330.81 716.739C1330.81 716.739 1330.81 716.739 1330.81 716.738Z" stroke="#FF9900" stroke-width="2" stroke-miterlimit="10"/>
<path d="M1494.58 834.584L1494.58 834.582C1474.11 823.887 1454.98 810.42 1435.88 796.621C1433.93 795.209 1431.98 793.794 1430.02 792.378C1412.88 779.964 1395.66 767.487 1377.46 756.775L1377.45 756.772C1356.98 744.876 1338.11 737.744 1319.89 734.672C1277.34 727.402 1239.05 740.883 1192.14 759.406L1192.14 759.407C1142.79 779.104 1098.99 770.818 1062.61 746.669C1026.19 722.492 997.157 682.385 977.527 638.443L977.526 638.441C962.737 605.559 950.6 571.092 944.074 535.436C942.805 528.433 941.39 520.94 939.902 513.057C932.46 473.642 923.179 424.486 921.131 378.21C919.903 350.45 921.282 323.79 927.198 300.939C933.112 278.093 943.541 259.127 960.36 246.637C963.549 244.301 967.771 243.161 972.876 243.001C977.982 242.841 983.898 243.664 990.394 245.183C1003.39 248.22 1018.52 253.992 1033.83 259.975C1035.06 260.455 1036.28 260.935 1037.51 261.415C1051.57 266.922 1065.63 272.43 1078.06 275.914C1084.83 277.809 1091.15 279.117 1096.75 279.495C1102.35 279.873 1107.31 279.331 1111.31 277.447L1111.32 277.444C1131.15 267.926 1149.66 256.983 1167.94 246.175C1176.96 240.839 1185.93 235.536 1194.97 230.454C1222.38 215.055 1250.59 201.613 1283.54 195.118L1283.54 195.118C1323.55 187.181 1351.84 152.097 1378.81 114.55C1381.88 110.279 1384.93 105.974 1387.98 101.671C1398.38 87.0047 1408.76 72.3515 1419.77 59.053C1434.01 41.8596 1449.22 27.0154 1466.7 17.4303C1472.33 14.366 1480.06 16.2011 1489.41 21.4888C1498.68 26.7338 1509.16 35.1634 1520.04 44.5812C1524.64 48.567 1529.32 52.739 1534 56.911C1540.34 62.5541 1546.67 68.1972 1552.81 73.3791C1563.49 82.3994 1573.73 90.1673 1582.63 94.3324C1590.37 98.1295 1597.54 99.2515 1602.87 95.4844C1654.23 60.3219 1715.28 69.6864 1767.92 98.403C1784.47 107.567 1802.34 119.744 1818.43 143.07C1818.82 144.12 1819.52 145.03 1820.1 145.802L1820.13 145.834C1840.9 177.203 1851.75 217.94 1854.3 255.775C1856.84 293.659 1851.05 328.408 1838.77 347.844L1838.77 347.845C1826.36 367.544 1809.94 378.357 1792.82 388.112C1790.29 389.552 1787.74 390.97 1785.19 392.392C1770.49 400.574 1755.62 408.859 1742.89 422.058C1734.92 430.156 1728.35 439.195 1722.35 448.732L1722.35 448.738L1722.34 448.745C1706.57 474.661 1696.79 505.459 1689.63 536.755C1684.9 557.397 1681.3 578.319 1677.87 598.218C1676.11 608.467 1674.39 618.445 1672.59 627.973C1670.73 637.794 1668.96 648.994 1667.05 661.036C1662.79 688.025 1657.86 719.244 1649.67 748.655C1637.83 791.207 1619.29 829.498 1586.52 845.435L1586.52 845.435C1557.76 859.465 1523.11 849.632 1494.58 834.584ZM1494.11 835.469C1522.71 850.549 1557.74 860.585 1586.96 846.334L1494.11 835.469Z" stroke="#FF9900" stroke-width="2" stroke-miterlimit="10"/>
<path d="M1496.7 861.559L1496.7 861.559C1474.63 849.812 1454.06 835.239 1433.49 820.387C1431.93 819.26 1430.37 818.132 1428.81 817.003C1409.8 803.264 1390.7 789.454 1370.39 777.653L1370.38 777.65C1348.21 764.916 1328.17 757.48 1308.36 753.89L1308.35 753.889C1262.71 745.896 1221.46 760.036 1170.83 780.184L1170.83 780.187C1117.35 801.825 1069.94 792.825 1030.58 766.588C991.181 740.322 959.813 696.753 938.614 649.263L938.613 649.26C922.416 613.301 908.986 576.085 902.118 537.359L901.133 537.533L902.118 537.358C900.615 528.895 898.905 519.762 897.097 510.114C889.206 467.985 879.474 416.025 877.174 367.005C875.762 336.888 877.16 307.946 883.491 283.128C889.821 258.313 901.062 237.694 919.282 224.105C922.706 221.559 927.263 220.325 932.786 220.162C938.308 219.999 944.719 220.911 951.764 222.58C965.858 225.92 982.3 232.242 998.933 238.793C1000.24 239.31 1001.56 239.828 1002.87 240.346C1018.17 246.383 1033.48 252.423 1047 256.251C1054.34 258.33 1061.2 259.768 1067.27 260.194C1073.34 260.619 1078.7 260.041 1083.01 258.007L1083.01 258.006C1104.75 247.684 1125.02 235.699 1145.07 223.849C1154.63 218.195 1164.15 212.572 1173.74 207.175C1203.49 190.442 1234.13 175.814 1269.94 168.873C1291.59 164.702 1310 153.079 1326.6 137.415C1343.18 121.758 1358.01 102.018 1372.5 81.5473C1375.82 76.8595 1379.12 72.1343 1382.42 67.4098C1393.54 51.4757 1404.66 35.55 1416.47 21.0964C1431.76 2.36482 1448.14 -13.8075 1467.02 -24.2253C1470.01 -25.8583 1473.56 -26.169 1477.66 -25.3291C1481.78 -24.4871 1486.37 -22.4991 1491.35 -19.616C1501.32 -13.8486 1512.62 -4.62137 1524.35 5.67997C1529.33 10.0467 1534.39 14.6156 1539.45 19.1853C1546.28 25.353 1553.11 31.5221 1559.74 37.1971C1571.28 47.0866 1582.33 55.6196 1591.92 60.257L1591.93 60.2613L1591.94 60.2655C1600.4 64.1487 1607.67 65.5939 1613.64 61.6233L1613.66 61.6161C1669.34 23.5482 1735.08 34.1457 1792 64.9598C1810.24 74.957 1829.62 88.3959 1847 113.418C1847.39 114.468 1848.08 115.377 1848.67 116.149L1848.69 116.179C1871.14 150.353 1882.86 194.431 1885.62 235.345C1888.37 276.307 1882.12 313.878 1868.85 335.077C1855.55 356.322 1837.76 368.048 1819.19 378.651C1816.47 380.202 1813.74 381.73 1810.99 383.261C1795.03 392.175 1778.88 401.196 1765.15 415.515L1765.14 415.524C1756.76 424.463 1749.68 434.029 1743.24 444.433L1743.24 444.436C1726.05 472.437 1715.47 505.82 1707.78 539.738C1702.67 562.272 1698.83 585.106 1695.18 606.772C1693.34 617.697 1691.55 628.325 1689.67 638.469C1687.68 649.039 1685.8 661.118 1683.77 674.12C1679.23 703.283 1673.96 737.09 1665.13 768.938C1652.36 815.003 1632.25 856.491 1596.52 873.619L1596.51 873.622C1565 888.947 1527.48 877.971 1496.7 861.559Z" stroke="#FF9900" stroke-width="2" stroke-miterlimit="10"/>
<path d="M1498.83 888.536L1498.83 888.534C1475.15 875.737 1453.11 859.98 1431 844.009C1430.1 843.357 1429.2 842.705 1428.3 842.053C1407.1 826.735 1385.77 811.326 1362.9 798.324C1339.21 784.32 1317.26 776.477 1296.29 772.579L1296.28 772.577C1247.55 763.863 1203.43 778.983 1149.1 800.755L1149.1 800.756C1091.54 823.966 1040.49 814.172 998.114 785.86C955.692 757.518 921.934 710.595 899.167 659.557C881.99 620.735 867.581 580.655 860.052 538.955L860.052 538.954C858.447 530.128 856.63 520.618 854.712 510.576C846.009 465.02 835.215 408.511 832.575 355.22C830.965 322.707 832.395 291.458 839.165 264.675C845.933 237.898 858.018 215.661 877.661 201.052C881.374 198.318 886.312 197.013 892.284 196.87C898.256 196.727 905.185 197.748 912.793 199.588C928.015 203.269 945.767 210.176 963.712 217.321C965.094 217.871 966.477 218.423 967.86 218.975C984.403 225.573 1000.95 232.172 1015.55 236.359C1023.46 238.629 1030.84 240.202 1037.38 240.679C1043.9 241.154 1049.66 240.542 1054.27 238.359L1054.28 238.358C1077.67 227.232 1099.42 214.297 1120.93 201.504C1131.19 195.401 1141.4 189.33 1151.71 183.503C1183.66 165.439 1216.66 149.651 1255.5 142.208C1278.74 137.759 1298.49 125.254 1316.28 108.37C1334.07 91.4932 1349.95 70.1935 1365.46 48.0877C1369.1 42.896 1372.72 37.6609 1376.34 32.4268C1388.15 15.346 1399.95 -1.72341 1412.47 -17.2341C1428.82 -37.4909 1446.31 -54.9999 1466.49 -66.3032C1469.73 -68.1068 1473.57 -68.455 1477.99 -67.547C1482.43 -66.6367 1487.38 -64.4735 1492.74 -61.3349C1503.46 -55.0564 1515.61 -45 1528.21 -33.7756C1533.6 -28.9767 1539.08 -23.9542 1544.56 -18.9332C1551.85 -12.2549 1559.14 -5.57938 1566.2 0.563561C1578.58 11.336 1590.42 20.6216 1600.68 25.6536C1609.73 30.0893 1617.61 31.2914 1623.89 27.23L1623.9 27.2226L1623.91 27.215C1683.3 -13.5362 1754.25 -2.23523 1815.22 31.0964L1815.22 31.0976C1835.19 41.9456 1855.99 56.352 1874.46 83.5552L1874.48 83.5778L1874.5 83.5995C1874.8 84.0013 1875.14 84.4842 1875.49 84.991L1875.5 85.0031C1875.83 85.4859 1876.19 85.9906 1876.51 86.4239C1900.74 123.187 1913.36 170.685 1916.35 214.76C1919.34 258.882 1912.66 299.352 1898.5 322.1L1898.5 322.101C1884.2 345.104 1865.04 357.743 1845.05 369.14C1842.12 370.815 1839.16 372.464 1836.2 374.116C1819.04 383.685 1801.7 393.356 1786.98 408.761L1786.98 408.767C1778.07 418.242 1770.25 428.772 1763.4 440.034L1763.39 440.039C1745.22 470.331 1734.01 506.319 1725.84 542.843C1720.52 566.623 1716.47 590.695 1712.61 613.585C1710.55 625.827 1708.55 637.731 1706.44 649.072L1706.44 649.073C1704.39 660.155 1702.45 672.783 1700.36 686.372C1695.49 718.008 1689.81 754.853 1680.21 789.529C1666.47 839.12 1644.78 883.807 1606.31 902.232C1572.56 918.324 1531.95 906.625 1498.83 888.536Z" stroke="#FF9900" stroke-width="2" stroke-miterlimit="10"/>
<path d="M1500.96 915.511L1500.96 915.51C1475.68 901.662 1452.25 884.695 1428.81 867.447C1427.27 866.311 1425.73 865.174 1424.18 864.037C1402.3 847.914 1380.31 831.713 1356.78 817.82L1356.78 817.818C1331.39 802.978 1308.16 794.505 1285.69 790.404L1285.69 790.404C1233.56 781.079 1186.15 796.965 1128.42 820.253L1128.42 820.254C1066.52 845.305 1011.8 834.899 966.435 804.593C921.022 774.256 884.953 723.95 860.564 669.205C842.201 627.95 826.703 584.69 818.514 540.018C816.759 530.371 814.762 519.949 812.651 508.927C803.335 460.297 791.781 399.99 788.876 343.084C787.095 308.188 788.571 274.637 795.786 245.894C802.999 217.155 815.929 193.299 836.998 177.67L836.998 177.67C840.987 174.709 846.295 173.305 852.709 173.16C859.122 173.016 866.563 174.133 874.732 176.136C891.075 180.143 910.139 187.644 929.404 195.403C930.923 196.015 932.444 196.628 933.964 197.242C951.689 204.394 969.405 211.542 985.034 216.096C993.522 218.569 1001.43 220.289 1008.43 220.823C1015.42 221.358 1021.57 220.717 1026.49 218.384L1026.49 218.383C1051.38 206.524 1074.57 192.746 1097.52 179.11C1108.67 172.484 1119.76 165.892 1130.96 159.57C1165.27 140.213 1200.73 123.317 1242.43 115.426L1242.43 115.426C1267.19 110.726 1288.2 97.3669 1307.13 79.286C1326.04 61.2125 1342.92 38.3738 1359.4 14.6467C1363.29 9.04879 1367.15 3.40244 1371.02 -2.24381C1383.56 -20.5584 1396.1 -38.8719 1409.41 -55.528C1426.81 -77.3114 1445.46 -96.1698 1467.02 -108.386C1470.43 -110.293 1474.51 -110.636 1479.21 -109.63C1483.92 -108.62 1489.19 -106.265 1494.89 -102.865C1506.31 -96.064 1519.28 -85.2101 1532.74 -73.1022C1538.5 -67.9228 1544.36 -62.504 1550.22 -57.0859C1558 -49.8825 1565.79 -42.6804 1573.34 -36.0439C1586.57 -24.4048 1599.23 -14.3562 1610.19 -8.85127L1610.19 -8.84697C1619.62 -4.22358 1628.4 -2.55867 1634.91 -7.0852C1698.63 -50.7383 1774.47 -38.6244 1839.5 -2.77654L1839.51 -2.7724C1860.76 8.70127 1882.94 24.0515 1902.81 53.2597C1903.19 53.8517 1903.55 54.3627 1903.89 54.8601C1904.24 55.3632 1904.58 55.8523 1904.95 56.418L1904.95 56.423C1930.8 95.8355 1944.42 146.741 1947.72 193.959C1951.03 241.215 1944 284.554 1928.79 308.901L1929.64 309.431L1928.79 308.902C1913.44 333.507 1892.88 346.981 1871.48 359.174C1868.48 360.881 1865.46 362.563 1862.45 364.249C1843.93 374.581 1825.24 385.017 1809.45 401.792L1809.44 401.799C1799.81 412.228 1791.46 423.292 1784.18 435.415C1764.64 467.949 1752.64 506.521 1743.92 545.626C1738.18 571.416 1733.85 597.502 1729.75 622.258C1727.63 635.016 1725.57 647.421 1723.41 659.25L1723.41 659.252C1721.28 670.993 1719.26 684.363 1717.09 698.752C1711.94 732.754 1705.94 772.446 1695.65 809.772C1680.99 862.916 1657.74 910.8 1616.3 930.418L1616.3 930.419C1579.81 947.806 1536.32 934.964 1500.96 915.511Z" stroke="#FF9900" stroke-width="2" stroke-miterlimit="10"/>
<path d="M1740.28 670.17L1740.28 670.174C1738.06 682.515 1735.94 696.569 1733.65 711.702C1728.18 747.979 1721.77 790.456 1710.74 830.402C1695.1 887.033 1670.28 938.118 1626.09 959.032C1587.37 977.181 1541.11 963.511 1503.08 942.485C1476.2 927.587 1451.3 909.435 1426.41 891.173L1424.52 889.788C1400.27 871.999 1375.99 854.182 1349.93 839.333C1323.16 823.551 1298.65 814.449 1274.68 810.146L1274.68 810.146C1219.57 800.42 1169.2 816.964 1107.76 841.877C1041.63 868.555 983.26 857.354 934.915 824.959C886.525 792.534 848.145 738.845 822.187 680.552L822.186 680.551C802.527 636.544 786.052 590.424 777.52 542.676L777.52 542.675C775.539 531.634 773.254 519.642 770.831 506.93C761.016 455.438 748.95 392.134 745.786 332.337C743.814 295.065 745.306 259.222 752.933 228.507C760.56 197.795 774.301 172.287 796.77 155.559L796.773 155.557C800.998 152.385 806.637 150.888 813.459 150.744C820.28 150.6 828.203 151.81 836.905 153.969C854.315 158.288 874.649 166.353 895.2 174.694C896.797 175.342 898.396 175.992 899.994 176.642C918.929 184.34 937.859 192.035 954.553 196.943C963.607 199.605 972.044 201.46 979.5 202.045C986.945 202.629 993.497 201.954 998.721 199.472L998.723 199.471C1025.26 186.807 1049.96 172.066 1074.41 157.475C1086.28 150.394 1098.09 143.349 1110.01 136.593C1146.57 115.891 1184.38 97.8357 1228.95 89.4977C1255.33 84.6002 1277.67 70.3853 1297.76 51.0821C1317.85 31.7867 1335.73 7.3586 1353.2 -18.0363C1357.33 -24.0475 1361.44 -30.1118 1365.55 -36.1766C1378.83 -55.762 1392.1 -75.351 1406.21 -93.1646C1424.67 -116.487 1444.49 -136.676 1467.44 -149.725L1467.45 -149.725C1471.07 -151.791 1475.4 -152.164 1480.37 -151.084C1485.36 -150.002 1490.95 -147.47 1496.99 -143.815C1509.09 -136.504 1522.84 -124.83 1537.12 -111.805C1543.14 -106.321 1549.26 -100.588 1555.38 -94.8524C1563.75 -87.0081 1572.14 -79.1565 1580.27 -71.9215C1594.36 -59.3917 1607.85 -48.5686 1619.58 -42.6159C1629.7 -37.1227 1638.77 -35.5887 1645.9 -40.312L1645.91 -40.3162L1645.91 -40.3205C1713.97 -86.8761 1794.49 -73.5275 1863.79 -35.5838C1886.44 -23.1619 1910.01 -6.86334 1931.28 24.3576L1931.29 24.3796L1931.31 24.4007C1931.93 25.2085 1932.66 26.3349 1933.42 27.5094L1933.42 27.5127C1960.88 69.5699 1975.4 123.896 1978.94 174.274C1982.49 224.69 1975.03 270.927 1958.77 296.874L1958.76 296.879C1942.42 323.244 1920.56 337.604 1897.79 350.576C1894.55 352.418 1891.3 354.232 1888.04 356.049C1868.38 367.015 1848.5 378.1 1831.62 395.981C1821.34 406.642 1812.56 418.566 1804.87 431.536C1784.07 466.099 1771.34 507.228 1762.11 548.954C1756.12 576.013 1751.58 603.388 1747.27 629.404C1744.94 643.479 1742.68 657.157 1740.28 670.17Z" stroke="#FF9900" stroke-width="2" stroke-miterlimit="10"/>
<path d="M1343.29 859.362L1343.29 859.362C1296.33 831.954 1255.63 823.016 1214.92 825.734C1174.26 828.449 1133.65 842.792 1086.88 861.803C1016.56 890.264 954.548 878.269 903.171 843.76C851.748 809.219 810.95 752.095 783.265 690.307C762.311 643.55 744.748 594.25 735.446 543.211C733.314 531.306 730.837 518.335 728.207 504.56C717.815 450.122 705.025 383.131 701.593 319.793C699.442 280.118 700.97 241.944 709.034 209.243C717.098 176.546 731.676 149.399 755.569 131.652L755.572 131.65C760.045 128.304 766.034 126.747 773.285 126.63C780.534 126.513 788.961 127.837 798.22 130.17C816.742 134.835 838.396 143.481 860.281 152.41C861.893 153.067 863.507 153.727 865.12 154.386C885.374 162.662 905.631 170.939 923.477 176.214C933.114 179.062 942.089 181.048 950.012 181.68C957.925 182.312 964.876 181.601 970.405 178.97L970.407 178.97C998.447 165.572 1024.58 149.987 1050.47 134.552C1063.22 126.949 1075.91 119.383 1088.73 112.133C1127.64 90.1374 1167.92 70.9736 1215.35 62.1885C1243.32 57.0129 1267 41.8965 1288.28 21.3484C1309.55 0.808187 1328.48 -25.2089 1346.96 -52.2586C1351.36 -58.702 1355.74 -65.2029 1360.11 -71.7038C1374.12 -92.5236 1388.13 -113.343 1403.01 -132.272C1422.53 -157.104 1443.48 -178.588 1467.75 -192.444L1467.76 -192.444C1472.42 -195.116 1478.22 -195.099 1485.01 -192.854C1491.81 -190.609 1499.48 -186.176 1507.76 -180.235C1524.14 -168.476 1542.67 -150.985 1561.24 -133.457L1561.81 -132.913C1580.54 -115.236 1599.29 -97.5793 1615.76 -85.9711C1624 -80.168 1631.73 -75.8277 1638.66 -73.7679C1645.61 -71.7048 1651.88 -71.8958 1657.01 -75.3614L1657.01 -75.363C1729.19 -124.397 1814.61 -110.235 1887.97 -69.7735L1887.97 -69.7713C1911.89 -56.7248 1936.96 -39.1637 1959.63 -5.9312L1959.63 -5.92999C1990.02 38.4895 2006.09 96.8078 2010.16 151.086C2014.24 205.402 2006.31 255.441 1988.94 283.362C1971.55 311.33 1948.32 326.604 1924.14 340.412C1920.73 342.357 1917.31 344.274 1913.87 346.193C1892.98 357.882 1871.88 369.687 1853.98 388.697C1819.39 425.325 1799.48 474.921 1786.08 526.966C1776.62 563.688 1770.39 601.723 1764.55 637.341C1762.12 652.186 1759.76 666.612 1757.26 680.348L1757.26 680.35C1754.91 693.412 1752.68 708.314 1750.27 724.378C1744.49 762.889 1737.72 808.075 1726.02 850.566C1709.44 910.806 1683.08 965.166 1636.08 987.217C1594.61 1006.66 1545.48 991.849 1505.2 969.458L1504.72 970.332L1505.2 969.458C1476.77 953.669 1450.43 934.413 1424.11 914.955C1422.91 914.069 1421.71 913.182 1420.51 912.295C1395.4 893.725 1370.23 875.108 1343.29 859.362Z" stroke="#FF9900" stroke-width="2" stroke-miterlimit="10"/>
<path d="M430.25 528C418.917 528 413.25 522.333 413.25 511V368.75C413.25 357.417 418.917 351.75 430.25 351.75H519.5C528.167 351.75 532.5 355.917 532.5 364.25C532.5 372.917 528.167 377.25 519.5 377.25H444V425.75H514C522.667 425.75 527 430 527 438.5C527 447 522.667 451.25 514 451.25H444V502.5H519.5C528.167 502.5 532.5 506.75 532.5 515.25C532.5 523.75 528.167 528 519.5 528H430.25ZM575.42 530C565.087 530 559.92 524.667 559.92 514V419.5C559.92 409 565.003 403.75 575.17 403.75C585.337 403.75 590.42 409 590.42 419.5V424.5C594.087 417.833 599.17 412.667 605.67 409C612.17 405.167 619.67 403.25 628.17 403.25C646.503 403.25 658.503 411.25 664.17 427.25C668.003 419.75 673.503 413.917 680.67 409.75C687.837 405.417 696.003 403.25 705.17 403.25C732.67 403.25 746.42 420 746.42 453.5V514C746.42 524.667 741.17 530 730.67 530C720.337 530 715.17 524.667 715.17 514V454.75C715.17 445.417 713.587 438.583 710.42 434.25C707.42 429.917 702.253 427.75 694.92 427.75C686.753 427.75 680.337 430.667 675.67 436.5C671.003 442.167 668.67 450.083 668.67 460.25V514C668.67 524.667 663.503 530 653.17 530C642.67 530 637.42 524.667 637.42 514V454.75C637.42 445.417 635.837 438.583 632.67 434.25C629.67 429.917 624.587 427.75 617.42 427.75C609.253 427.75 602.837 430.667 598.17 436.5C593.503 442.167 591.17 450.083 591.17 460.25V514C591.17 524.667 585.92 530 575.42 530ZM818.908 530.5C810.075 530.5 802.158 528.833 795.158 525.5C788.325 522 782.908 517.333 778.908 511.5C775.075 505.667 773.158 499.083 773.158 491.75C773.158 482.75 775.492 475.667 780.158 470.5C784.825 465.167 792.408 461.333 802.908 459C813.408 456.667 827.492 455.5 845.158 455.5H853.908V450.25C853.908 441.917 852.075 435.917 848.408 432.25C844.742 428.583 838.575 426.75 829.908 426.75C825.075 426.75 819.825 427.333 814.158 428.5C808.658 429.667 802.825 431.667 796.658 434.5C792.658 436.333 789.325 436.583 786.658 435.25C783.992 433.75 782.158 431.5 781.158 428.5C780.325 425.333 780.492 422.167 781.658 419C782.992 415.833 785.575 413.5 789.408 412C797.075 408.833 804.408 406.583 811.408 405.25C818.575 403.917 825.075 403.25 830.908 403.25C848.742 403.25 861.992 407.417 870.658 415.75C879.325 423.917 883.658 436.667 883.658 454V514C883.658 524.667 878.825 530 869.158 530C859.325 530 854.408 524.667 854.408 514V508.5C851.575 515.333 847.075 520.75 840.908 524.75C834.742 528.583 827.408 530.5 818.908 530.5ZM825.408 509C833.575 509 840.325 506.167 845.658 500.5C851.158 494.833 853.908 487.667 853.908 479V473.5H845.408C829.742 473.5 818.825 474.75 812.658 477.25C806.658 479.583 803.658 483.917 803.658 490.25C803.658 495.75 805.575 500.25 809.408 503.75C813.242 507.25 818.575 509 825.408 509ZM926.877 473.5C923.21 473.5 920.127 472.333 917.627 470C915.294 467.5 914.127 464.5 914.127 461C914.127 457.333 915.294 454.333 917.627 452C920.127 449.667 923.21 448.5 926.877 448.5H980.127C983.627 448.5 986.544 449.667 988.877 452C991.377 454.333 992.627 457.333 992.627 461C992.627 464.5 991.377 467.5 988.877 470C986.544 472.333 983.627 473.5 980.127 473.5H926.877ZM1028.83 528C1024.5 528 1021.25 526.667 1019.08 524C1016.92 521.167 1016 517.833 1016.33 514C1016.67 510.167 1018.42 506.5 1021.58 503L1080.33 429.25H1027.33C1019.33 429.25 1015.33 425.333 1015.33 417.5C1015.33 409.667 1019.33 405.75 1027.33 405.75H1101.33C1106.33 405.75 1110 407.083 1112.33 409.75C1114.83 412.417 1115.92 415.667 1115.58 419.5C1115.42 423.167 1113.75 426.75 1110.58 430.25L1051.08 504.5H1107.08C1115.08 504.5 1119.08 508.417 1119.08 516.25C1119.08 524.083 1115.08 528 1107.08 528H1028.83ZM1193.05 530.5C1180.38 530.5 1169.38 527.917 1160.05 522.75C1150.72 517.583 1143.47 510.25 1138.3 500.75C1133.13 491.083 1130.55 479.75 1130.55 466.75C1130.55 453.75 1133.13 442.5 1138.3 433C1143.47 423.5 1150.72 416.167 1160.05 411C1169.38 405.833 1180.38 403.25 1193.05 403.25C1205.72 403.25 1216.72 405.833 1226.05 411C1235.38 416.167 1242.63 423.5 1247.8 433C1252.97 442.5 1255.55 453.75 1255.55 466.75C1255.55 479.75 1252.97 491.083 1247.8 500.75C1242.63 510.25 1235.38 517.583 1226.05 522.75C1216.72 527.917 1205.72 530.5 1193.05 530.5ZM1193.05 506.75C1202.38 506.75 1209.88 503.417 1215.55 496.75C1221.22 489.917 1224.05 479.917 1224.05 466.75C1224.05 453.417 1221.22 443.5 1215.55 437C1209.88 430.333 1202.38 427 1193.05 427C1183.72 427 1176.22 430.333 1170.55 437C1164.88 443.5 1162.05 453.417 1162.05 466.75C1162.05 479.917 1164.88 489.917 1170.55 496.75C1176.22 503.417 1183.72 506.75 1193.05 506.75ZM1296.84 530C1286.51 530 1281.34 524.667 1281.34 514V419.5C1281.34 409 1286.43 403.75 1296.59 403.75C1306.76 403.75 1311.84 409 1311.84 419.5V424.75C1316.01 417.75 1321.59 412.417 1328.59 408.75C1335.76 405.083 1343.76 403.25 1352.59 403.25C1381.43 403.25 1395.84 420 1395.84 453.5V514C1395.84 524.667 1390.68 530 1380.34 530C1369.84 530 1364.59 524.667 1364.59 514V455C1364.59 445.5 1362.76 438.583 1359.09 434.25C1355.59 429.917 1350.09 427.75 1342.59 427.75C1333.43 427.75 1326.09 430.667 1320.59 436.5C1315.26 442.167 1312.59 449.75 1312.59 459.25V514C1312.59 524.667 1307.34 530 1296.84 530Z" fill="white"/>
<path fill-rule="evenodd" clip-rule="evenodd" d="M1135.94 621.17C1068.59 670.618 970.974 697 886.926 697C769.077 697 662.983 653.582 582.718 581.371C576.413 575.691 582.063 567.953 589.63 572.375C676.251 622.577 783.354 652.778 893.989 652.778C968.603 652.778 1050.68 637.401 1126.15 605.491C1137.56 600.667 1147.09 612.928 1135.94 621.17Z" fill="#FF9900"/>
<path fill-rule="evenodd" clip-rule="evenodd" d="M1163.94 589.26C1155.36 578.304 1107.03 584.084 1085.34 586.646C1078.73 587.451 1077.72 581.722 1083.68 577.601C1122.17 550.616 1185.33 558.405 1192.7 567.45C1200.06 576.546 1190.78 639.612 1154.61 669.713C1149.06 674.336 1143.76 671.874 1146.23 665.742C1154.35 645.542 1172.57 600.265 1163.94 589.26Z" fill="#FF9900"/>
</g>
<defs>
<clipPath id="clip0_198_133">
<rect width="1920" height="960" fill="white"/>
</clipPath>
</defs>
</svg>
